<?xml version="1.0" encoding="UTF-8"?>
<svg id="Layer_1" data-name="Layer 1" xmlns="http://www.w3.org/2000/svg" viewBox="0 0 99.57 103.92">
  <defs>
    <style>
      .cls-1 {
        fill: #f9ab95;
      }
    </style>
  </defs>
  <rect class="cls-1" width="99.57" height="103.92" rx="27.4" ry="27.4"/>
  <g id="Layer_6" data-name="Layer 6">
    <path d="m58.01,30.45c0-.09.01-.16.01-.25,0-3.8-3.6-6.88-8.04-6.88s-8.04,3.09-8.04,6.88c0,.09.01.17.01.25-9.35,3.32-16.09,12.23-16.09,22.71,0,5.81,2.07,11.14,5.5,15.31l-4.27,10.67c-.14.35-.09.76.11,1.07.21.31.57.5.95.5h3.45c.28,0,.55-.1.76-.29l6.58-5.85c3.31,1.71,7.05,2.7,11.02,2.7s7.72-.98,11.02-2.7l6.58,5.85c.21.19.48.29.76.29h3.45c.38,0,.74-.19.95-.5s.26-.72.11-1.07l-4.27-10.67c3.43-4.17,5.5-9.5,5.5-15.31,0-10.47-6.73-19.39-16.09-22.71h.03Zm-8.02-4.84c2.97,0,5.4,1.83,5.68,4.15-1.83-.45-3.72-.71-5.68-.71s-3.85.26-5.68.71c.28-2.32,2.71-4.15,5.68-4.15Zm-18.8,52.8h-1.31l3.23-8.07c1.15,1.13,2.41,2.14,3.77,3.02l-5.69,5.06h0Zm-3-25.25c0-12.02,9.78-21.81,21.81-21.81s21.81,9.78,21.81,21.81-9.78,21.81-21.81,21.81-21.81-9.78-21.81-21.81Zm40.61,25.25l-5.69-5.06c1.35-.88,2.62-1.89,3.77-3.02l3.23,8.07h-1.31Z"/>
    <path d="m23.02,44.12c-.55-.32-1.25-.14-1.57.41-1.62,2.77-2.46,5.67-2.46,8.62s.83,5.85,2.46,8.62c.21.37.6.57.99.57.2,0,.4-.05.58-.16.55-.32.73-1.03.41-1.57-1.42-2.41-2.14-4.92-2.14-7.45s.72-5.05,2.14-7.45c.32-.55.14-1.25-.41-1.57h0Z"/>
    <path d="m18.43,44.12c-.55-.32-1.25-.14-1.57.41-1.62,2.77-2.46,5.67-2.46,8.62s.83,5.85,2.46,8.62c.21.37.6.57.99.57.2,0,.4-.05.58-.16.55-.32.73-1.03.41-1.57-1.42-2.41-2.14-4.92-2.14-7.45s.72-5.05,2.14-7.45c.32-.55.14-1.25-.41-1.57h0Z"/>
    <path d="m76.95,44.12c-.55.32-.73,1.03-.41,1.57,1.42,2.41,2.14,4.92,2.14,7.45s-.72,5.05-2.14,7.45c-.32.55-.14,1.25.41,1.57.18.11.38.16.58.16.39,0,.77-.2.99-.57,1.62-2.77,2.46-5.67,2.46-8.62s-.83-5.85-2.46-8.62c-.32-.55-1.03-.73-1.57-.41h0Z"/>
    <path d="m83.12,44.53c-.32-.55-1.03-.73-1.57-.41s-.73,1.03-.41,1.57c1.42,2.41,2.14,4.92,2.14,7.45s-.72,5.05-2.14,7.45c-.32.55-.14,1.25.41,1.57.18.11.38.16.58.16.39,0,.77-.2.99-.57,1.62-2.77,2.46-5.67,2.46-8.62s-.83-5.85-2.46-8.62h0Z"/>
    <path d="m79.83,33.87c0-2.82-1.1-5.47-3.09-7.47-2-2-4.65-3.09-7.47-3.09s-5.47,1.1-7.47,3.09c-.45.45-.45,1.17,0,1.62l13.31,13.31c.23.23.52.33.81.33s.59-.11.81-.33c2-2,3.09-4.65,3.09-7.47h0Zm-3.96,4.98l-11.58-11.58c1.42-1.08,3.16-1.66,4.98-1.66,2.21,0,4.28.86,5.84,2.42s2.42,3.63,2.42,5.84c0,1.82-.59,3.55-1.66,4.98h0Z"/>
    <path d="m29.61,34.98c-.45-.45-1.17-.45-1.62,0l-3.89,3.87c-1.08-1.42-1.66-3.16-1.66-4.98,0-2.21.86-4.29,2.42-5.84,1.56-1.56,3.63-2.42,5.84-2.42,1.82,0,3.55.59,4.98,1.66l-4.46,4.46c-.45.45-.45,1.17,0,1.62.45.45,1.17.45,1.62,0l5.33-5.33c.45-.45.45-1.17,0-1.62-1.99-1.99-4.65-3.09-7.47-3.09s-5.47,1.1-7.47,3.09c-1.99,1.99-3.09,4.65-3.09,7.47s1.1,5.47,3.09,7.47c.23.23.52.33.81.33s.59-.11.81-.33l4.76-4.74c.45-.45.45-1.17,0-1.62h0Z"/>
    <path d="m49.99,38.23c.64,0,1.15-.52,1.15-1.15v-2.29c0-.64-.52-1.15-1.15-1.15s-1.15.52-1.15,1.15v2.29c0,.64.52,1.15,1.15,1.15Z"/>
    <path d="m37.82,39.35c-.45-.45-1.17-.45-1.62,0-.45.45-.45,1.17,0,1.62l1.62,1.62c.23.23.52.33.81.33s.59-.11.81-.33c.45-.45.45-1.17,0-1.62l-1.62-1.62h0Z"/>
    <path d="m33.92,52h-2.29c-.64,0-1.15.52-1.15,1.15s.52,1.15,1.15,1.15h2.29c.64,0,1.15-.52,1.15-1.15s-.52-1.15-1.15-1.15Z"/>
    <path d="m37.82,63.7l-1.62,1.62c-.45.45-.45,1.17,0,1.62.23.23.52.33.81.33s.59-.11.81-.33l1.62-1.62c.45-.45.45-1.17,0-1.62-.45-.45-1.17-.45-1.62,0h0Z"/>
    <path d="m49.99,68.07c-.64,0-1.15.52-1.15,1.15v2.29c0,.64.52,1.15,1.15,1.15s1.15-.52,1.15-1.15v-2.29c0-.64-.52-1.15-1.15-1.15Z"/>
    <path d="m62.16,63.7c-.45-.45-1.17-.45-1.62,0-.45.45-.45,1.17,0,1.62l1.62,1.62c.23.23.52.33.81.33s.59-.11.81-.33c.45-.45.45-1.17,0-1.62l-1.62-1.62h0Z"/>
    <path d="m68.36,54.3c.64,0,1.15-.52,1.15-1.15s-.52-1.15-1.15-1.15h-2.29c-.64,0-1.15.52-1.15,1.15s.52,1.15,1.15,1.15h2.29Z"/>
    <path d="m62.16,39.35l-1.62,1.62c-.45.45-.45,1.17,0,1.62.23.23.52.33.81.33s.59-.11.81-.33l1.62-1.62c.45-.45.45-1.17,0-1.62-.45-.45-1.17-.45-1.62,0h0Z"/>
    <path d="m51.14,52.67v-8.12c0-.64-.52-1.15-1.15-1.15s-1.15.52-1.15,1.15v8.6c0,.3.12.6.33.81l4.59,4.59c.23.23.52.33.81.33s.59-.11.81-.33c.45-.45.45-1.17,0-1.62l-4.26-4.26h0Z"/>
  </g>
</svg>