<?xml version="1.0" encoding="UTF-8"?>
<svg id="Layer_1" data-name="Layer 1" xmlns="http://www.w3.org/2000/svg" viewBox="0 0 110 114.81">
  <defs>
    <style>
      .cls-1 {
        stroke: #000;
        stroke-miterlimit: 10;
      }

      .cls-2 {
        fill: #f9ab95;
      }
    </style>
  </defs>
  <rect class="cls-2" y="0" width="110" height="114.81" rx="30.27" ry="30.27"/>
  <path class="cls-1" d="m87.4,37.07h-15.04l-4.88-7.54c-.89-1.37-2.34-2.16-3.97-2.16h-16.82c-1.64,0-3.08.79-3.97,2.16l-4.88,7.54h-1.94v-2.53c0-1.3-1.06-2.37-2.37-2.37h-7.53c-1.3,0-2.37,1.06-2.37,2.37v2.53h-.85c-3.47,0-6.3,2.83-6.3,6.3v38.83c0,3.48,2.83,6.3,6.3,6.3h64.62c3.48,0,6.3-2.83,6.3-6.3v-38.83c0-3.47-2.83-6.3-6.31-6.3h.01Zm-43.37-6.68c.61-.93,1.54-1.43,2.64-1.43h16.82c1.11,0,2.04.51,2.64,1.43l4.33,6.68h-30.76l4.33-6.68h0Zm-18.83,4.17c0-.44.35-.79.79-.79h7.53c.44,0,.79.35.79.79v2.53h-9.11v-2.53h0Zm-2.42,4.1h64.62c2.61,0,4.72,2.12,4.72,4.72v9.98h-20.8c-3.26-5.58-9.32-9.35-16.23-9.35s-12.98,3.77-16.23,9.36h-20.8v-9.98c0-2.61,2.12-4.74,4.73-4.74h0Zm32.31,6.94c9.48,0,17.2,7.72,17.2,17.2s-7.71,17.19-17.2,17.19-17.2-7.72-17.2-17.2,7.71-17.19,17.2-17.19Zm32.31,41.34H22.77c-2.61,0-4.72-2.12-4.72-4.72v-27.26h19.98c-1.1,2.39-1.72,5.04-1.72,7.84,0,10.35,8.42,18.78,18.78,18.78s18.78-8.42,18.78-18.78c0-2.8-.62-5.46-1.72-7.84h19.99v27.25c-.01,2.62-2.13,4.73-4.74,4.73h-.01Zm-32.31-10.12c7.72,0,14.01-6.28,14.01-14.01s-6.28-14.01-14.01-14.01-14.01,6.28-14.01,14.01,6.29,14.01,14.01,14.01Zm0-26.45c6.86,0,12.43,5.57,12.43,12.43s-5.57,12.43-12.43,12.43-12.43-5.57-12.43-12.43,5.57-12.43,12.43-12.43Zm23.95-.93h6.78c1.13,0,2.05-.91,2.05-2.05v-2.73c0-1.13-.91-2.05-2.05-2.05h-6.78c-1.13,0-2.05.93-2.05,2.05v2.73c0,1.13.91,2.05,2.05,2.05Zm-.47-4.78c0-.26.21-.47.47-.47h6.78c.26,0,.47.21.47.47v2.73c0,.26-.21.47-.47.47h-6.78c-.26,0-.47-.21-.47-.47v-2.73Zm-17.25-11.63c0,.44-.35.79-.79.79h-10.88c-.44,0-.79-.35-.79-.79s.35-.79.79-.79h10.89c.43.01.79.36.79.79h0Z"/>
</svg>