<?xml version="1.0" encoding="UTF-8"?>
<svg id="Layer_1" data-name="Layer 1" xmlns="http://www.w3.org/2000/svg" viewBox="0 0 110 114.81">
  <defs>
    <style>
      .cls-1 {
        stroke: #000;
        stroke-miterlimit: 10;
      }

      .cls-2 {
        fill: #f9ab95;
      }
    </style>
  </defs>
  <rect class="cls-2" width="110" height="114.81" rx="30.27" ry="30.27"/>
  <g id="Layer_6" data-name="Layer 6">
    <path class="cls-1" d="m54.4,39.39c-10.12,0-18.36,8.24-18.36,18.36s8.24,18.36,18.36,18.36,18.36-8.24,18.36-18.36-8.24-18.36-18.36-18.36Zm0,34.82c-9.07,0-16.46-7.38-16.46-16.46s7.38-16.46,16.46-16.46,16.46,7.38,16.46,16.46-7.38,16.46-16.46,16.46Zm29.94-8.31l-3.53-2.78c.36-1.78.54-3.58.54-5.37s-.18-3.59-.54-5.37l3.53-2.78c.9-.72,1.16-2,.58-3.01l-5.59-9.7c-.58-1-1.82-1.43-2.89-1l-4.18,1.67c-2.71-2.39-5.9-4.24-9.3-5.38l-.64-4.44c-.17-1.14-1.16-2-2.31-2h-11.2c-1.16,0-2.15.86-2.31,2l-.64,4.44c-3.4,1.14-6.6,2.99-9.3,5.38l-4.18-1.67c-1.07-.43-2.32,0-2.89,1l-5.59,9.7c-.58,1-.33,2.29.58,3.01l3.53,2.78c-.36,1.78-.54,3.58-.54,5.37s.18,3.59.54,5.37l-3.53,2.78c-.9.72-1.16,2-.58,3.01l5.59,9.7c.58,1,1.82,1.43,2.89,1l4.18-1.67c2.71,2.39,5.9,4.24,9.3,5.38l.64,4.44c.17,1.14,1.16,2,2.31,2h11.2c1.16,0,2.15-.86,2.31-2l.64-4.44c3.4-1.14,6.6-2.99,9.3-5.38l4.18,1.67c1.07.43,2.32,0,2.89-1l5.59-9.7c.58-1,.33-2.29-.58-3.01Zm-1.07,2.05l-5.59,9.7c-.1.19-.34.27-.54.19l-4.72-1.89c-.34-.14-.73-.06-1,.18-2.74,2.54-6.06,4.45-9.6,5.55-.35.1-.61.41-.66.77l-.72,5.03c-.03.22-.22.38-.43.38h-11.2c-.22,0-.4-.16-.43-.38l-.73-5.03c-.06-.36-.31-.66-.66-.77-3.53-1.09-6.85-3.01-9.6-5.55-.18-.17-.41-.25-.65-.25-.12,0-.24.02-.35.07l-4.72,1.89c-.2.08-.43,0-.54-.19l-5.59-9.7c-.1-.19-.06-.42.1-.56l3.99-3.15c.29-.23.42-.6.34-.96-.41-1.83-.63-3.69-.63-5.54s.21-3.71.63-5.54c.08-.35-.05-.73-.34-.96l-3.99-3.15c-.17-.13-.22-.38-.1-.56l5.59-9.7c.1-.19.34-.26.54-.19l4.72,1.89c.34.14.73.06,1-.18,2.74-2.54,6.06-4.45,9.6-5.55.35-.1.61-.41.66-.77l.73-5.03c.03-.22.22-.38.43-.38h11.2c.22,0,.4.16.43.38l.72,5.03c.06.36.31.66.66.77,3.53,1.09,6.85,3.01,9.6,5.55.27.25.65.32,1,.18l4.72-1.89c.2-.08.43,0,.54.19l5.59,9.7c.1.19.06.42-.1.56l-3.99,3.15c-.29.23-.42.6-.34.96.41,1.83.63,3.69.63,5.54s-.21,3.71-.63,5.54c-.08.35.05.73.34.96l3.99,3.15c.17.13.21.38.1.56h0Zm-28.88-21.82c1.1,0,2.19.15,3.25.47.5.15,1.03-.14,1.18-.65.15-.5-.14-1.03-.65-1.18-1.23-.36-2.5-.54-3.79-.54-7.45,0-13.52,6.07-13.52,13.52,0,1.27.18,2.55.54,3.79.12.41.5.68.91.68.09,0,.18-.01.26-.04.5-.15.79-.67.65-1.18-.31-1.06-.47-2.16-.47-3.25,0-6.41,5.21-11.62,11.62-11.62h0Zm11.15,8.36c.31,1.06.47,2.16.47,3.25,0,6.41-5.21,11.62-11.62,11.62-1.1,0-2.19-.15-3.25-.47-.5-.15-1.03.14-1.18.65-.15.5.14,1.03.65,1.18,1.23.36,2.5.54,3.79.54,7.45,0,13.52-6.07,13.52-13.52,0-1.27-.18-2.55-.54-3.79-.15-.5-.67-.79-1.18-.65-.5.15-.79.67-.65,1.18h0Z"/>
  </g>
</svg>