<?xml version="1.0" encoding="UTF-8"?>
<svg id="Layer_1" data-name="Layer 1" xmlns="http://www.w3.org/2000/svg" viewBox="0 0 110 114.81">
  <defs>
    <style>
      .cls-1 {
        stroke: #000;
        stroke-miterlimit: 10;
        stroke-width: .75px;
      }

      .cls-2 {
        fill: #f9ab95;
      }
    </style>
  </defs>
  <rect class="cls-2" width="110" height="114.81" rx="30.27" ry="30.27"/>
  <path class="cls-1" d="m16.81,32.35c-.55.09-.95.56-.95,1.13v51.74c0,.52.37.97.88,1.09l38.24,9c.16.03.33.03.49,0l38.24-9c.51-.11.88-.56.88-1.09v-51.74c0-.62-.51-1.12-1.13-1.12-.08,0-.16,0-.24.03l-38,8.93-38-8.93c-.14-.04-.28-.05-.42-.03h0Zm1.3,2.53l35.99,8.47v49.42l-35.99-8.43v-49.46h0Zm74.24,0v49.46l-35.99,8.43v-49.42l35.99-8.47h0Zm-68.79,9.63c-.61.09-1.04.66-.95,1.27.07.47.42.84.88.94l24.74,5.84c.61.14,1.22-.25,1.35-.86s-.25-1.22-.86-1.35l-24.74-5.84c-.14-.03-.29-.03-.42,0h0Zm47.45,3.55c-.11,0-.22.03-.31.07l-9,2.25c-.6.15-.97.77-.81,1.37s.77.97,1.37.81l9-2.25c.62-.07,1.07-.63,1-1.25s-.63-1.07-1.25-1h0Zm15.75,6.54c-.1,0-.19.01-.28.03l-24.74,5.84c-.61.13-1,.74-.87,1.35.13.61.74,1,1.35.87h.01l24.74-5.84c.62-.06,1.08-.61,1.02-1.23s-.61-1.08-1.23-1.02h0Zm-63.2.03c-.61.09-1.04.66-.95,1.27.07.47.42.84.88.94l24.74,5.84c.61.14,1.22-.24,1.36-.85.14-.61-.24-1.22-.85-1.36h-.01l-24.74-5.84c-.14-.03-.29-.03-.42,0h0Zm63.2,10.09c-.1,0-.19.01-.28.03l-24.74,5.84c-.61.13-1,.74-.87,1.35.13.61.74,1,1.35.87h.01l24.74-5.84c.62-.06,1.08-.61,1.02-1.23s-.61-1.08-1.23-1.02h0Zm-63.2.03c-.61.09-1.04.66-.95,1.27.07.47.42.84.88.94l24.74,5.84c.61.14,1.22-.24,1.36-.85.14-.61-.24-1.22-.85-1.36h-.01l-24.74-5.84c-.14-.03-.29-.03-.42,0h0Zm63.2,10.09c-.1,0-.19.01-.28.03l-24.74,5.84c-.61.13-1,.74-.87,1.35.13.61.74,1,1.35.87h.01l24.74-5.84c.62-.06,1.08-.61,1.02-1.23s-.61-1.08-1.23-1.02h0Zm-63.2.03c-.61.09-1.04.66-.95,1.27.07.47.42.84.88.94l24.74,5.84c.61.14,1.22-.24,1.36-.85.14-.61-.24-1.22-.85-1.36h-.01l-24.74-5.84c-.14-.03-.29-.03-.42,0h0Z"/>
</svg>